<svg width="486" height="84" viewBox="0 0 486 84" fill="none" xmlns="http://www.w3.org/2000/svg">
<path d="M-3.05176e-05 2.03225H43.5521C47.76 2.03225 51.9154 2.4086 56.0181 3.16129C60.1209 3.83871 63.7502 5.00537 66.9062 6.66128C70.1673 8.24193 72.7973 10.3118 74.7961 12.871C76.7948 15.4301 77.7942 18.5162 77.7942 22.1291C77.7942 26.6452 76.0058 30.371 72.4291 33.3065C68.8524 36.242 64.171 38.3494 58.3851 39.6291V39.8549C61.8566 40.1559 65.0652 40.871 68.0107 42C71.0616 43.0537 73.6388 44.4462 75.7428 46.1774C77.8469 47.8333 79.4773 49.7903 80.6346 52.0484C81.8969 54.2311 82.5281 56.6021 82.5281 59.1613C82.5281 63.5269 81.3184 67.1774 78.8988 70.1129C76.4792 72.9731 73.2707 75.3065 69.2731 77.1129C65.3808 78.844 60.8572 80.086 55.7025 80.8387C50.653 81.5914 45.4983 81.9678 40.2384 81.9678H-3.05176e-05V2.03225ZM19.8825 34.5484H38.0292C44.6567 34.5484 49.6011 33.6452 52.8622 31.8387C56.2286 29.9569 57.9117 27.5107 57.9117 24.5C57.9117 21.0376 56.1759 18.4785 52.7044 16.8226C49.338 15.0914 43.8677 14.2258 36.2934 14.2258H19.8825V34.5484ZM19.8825 69.7742H38.187C40.7118 69.7742 43.3943 69.6613 46.2347 69.4355C49.1802 69.2097 51.8627 68.6827 54.2824 67.8549C56.702 67.0269 58.7007 65.8602 60.2787 64.3549C61.8566 62.7742 62.6456 60.6666 62.6456 58.0323C62.6456 53.8172 60.6994 50.8817 56.8071 49.2258C53.02 47.5698 47.0763 46.742 38.976 46.742H19.8825V69.7742ZM102.322 2.03225H122.204V69.0968H169.701V81.9678H102.322V2.03225ZM184.148 2.03225H258.156V14.9033H204.031V34.5484H255.315V47.4194H204.031V69.0968H260.996V81.9678H184.148V2.03225ZM357.304 20.7742C353.201 17.6129 349.205 15.5053 345.311 14.4516C341.524 13.3978 337.686 12.871 333.792 12.871C328.007 12.871 322.746 13.6237 318.012 15.1291C313.385 16.5591 309.387 18.5914 306.02 21.2258C302.654 23.7849 300.024 26.7957 298.13 30.2581C296.343 33.7204 295.447 37.4462 295.447 41.4355C295.447 45.7258 296.343 49.6774 298.13 53.2903C300.024 56.9032 302.654 60.0269 306.02 62.6613C309.387 65.2956 313.385 67.3656 318.012 68.871C322.746 70.3763 328.007 71.129 333.792 71.129C338.317 71.129 342.682 70.3763 346.889 68.871C351.203 67.2903 355.201 64.8065 358.882 61.4194L375.293 69.7742C370.244 74.7419 364.089 78.3548 356.831 80.6129C349.572 82.871 341.84 84 333.634 84C325.009 84 317.066 83.0214 309.807 81.0645C302.654 79.0323 296.447 76.2097 291.187 72.5968C286.033 68.9085 281.983 64.5053 279.036 59.3871C276.091 54.2688 274.618 48.586 274.618 42.3387C274.618 35.9408 276.091 30.1452 279.036 24.9516C281.983 19.6828 286.033 15.2043 291.187 11.5162C296.447 7.82795 302.654 5.00538 309.807 3.04838C317.066 1.01613 325.009 0 333.634 0C341.209 0 348.205 0.978493 354.622 2.93548C361.144 4.8172 367.194 8.05376 372.768 12.6452L357.304 20.7742ZM388.639 2.03225H408.521V35.9032H409.468L455.703 2.03225H482.528L430.297 38.9516L486 81.9678H458.07L409.626 42.6774H408.521V81.9678H388.639V2.03225Z" fill="#893002"/>
</svg>
